<svg width="68" height="20" viewBox="0 0 68 20" fill="none" xmlns="http://www.w3.org/2000/svg">
<g clip-path="url(#clip0_66_646)">
<path d="M3.02301 2.66046L9.36009 16.0261L15.2418 2.66046H16.5826L8.96796 19.8522H8.23431L0.0505371 2.66046H3.02301ZM20.4202 6.98058L22.229 6.24577H22.9753V19.4594H20.4202V6.98058ZM20.2178 1.52025C20.2178 1.31755 20.2557 1.12752 20.3316 0.950151C20.4076 0.772789 20.513 0.61654 20.6479 0.481402C20.7828 0.346267 20.9388 0.240693 21.1159 0.16468C21.293 0.0886657 21.4827 0.0506592 21.6851 0.0506592C21.8875 0.0506592 22.0772 0.0886657 22.2542 0.16468C22.4314 0.240693 22.5873 0.346267 22.7222 0.481402C22.8572 0.61654 22.9626 0.772789 23.0385 0.950151C23.1144 1.12752 23.1523 1.31755 23.1523 1.52025C23.1523 1.72296 23.1144 1.91299 23.0385 2.09036C22.9626 2.26772 22.8572 2.42397 22.7222 2.55911C22.5873 2.69424 22.4314 2.79982 22.2542 2.87583C22.0772 2.95184 21.8875 2.98985 21.6851 2.98985C21.4827 2.98985 21.293 2.95184 21.1159 2.87583C20.9388 2.79982 20.7828 2.69424 20.6479 2.55911C20.513 2.42397 20.4076 2.26772 20.3316 2.09036C20.2557 1.91299 20.2178 1.72296 20.2178 1.52025ZM29.5703 6.48647L34.1492 16.3049L38.5383 6.48647H39.702L33.8709 19.5988H32.9855L26.8761 6.48647H29.5703ZM45.3105 6.24577H45.7026L46.0441 8.89355C46.2465 8.50506 46.4995 8.15031 46.803 7.82939C47.1066 7.50841 47.4397 7.22971 47.8023 6.99323C48.1734 6.75674 48.5612 6.57517 48.966 6.44847C49.3792 6.31333 49.7966 6.24577 50.2183 6.24577C50.5977 6.24577 50.9688 6.29642 51.3314 6.39777C51.7024 6.49912 52.0481 6.6596 52.3685 6.87923L51.559 9.0456C51.3904 8.85977 51.2133 8.71198 51.0278 8.6022C50.8422 8.48393 50.6525 8.39523 50.4586 8.33614C50.2646 8.26858 50.0665 8.22636 49.8641 8.20944C49.6617 8.19252 49.4593 8.18409 49.2569 8.18409C48.9365 8.18409 48.6203 8.23058 48.3083 8.32344C48.0047 8.41636 47.7138 8.55571 47.4355 8.74155C47.1572 8.9189 46.9 9.15117 46.6639 9.43831C46.4278 9.71706 46.2212 10.0464 46.0441 10.4265V19.4594H43.4764V6.95523L45.3105 6.24577ZM61.4552 19.7381C60.5782 19.7381 59.752 19.5734 58.9765 19.2441C58.209 18.9147 57.5387 18.4671 56.9651 17.9012C56.3919 17.3353 55.9364 16.6723 55.5991 15.9121C55.2699 15.1435 55.1059 14.3285 55.1059 13.4671C55.1059 12.4282 55.2575 11.4696 55.5613 10.5912C55.8646 9.70436 56.2948 8.94004 56.8512 8.29814C57.4076 7.65625 58.0741 7.15371 58.8496 6.79052C59.6338 6.42733 60.507 6.24577 61.4682 6.24577C62.3112 6.24577 63.0872 6.39777 63.7953 6.70182C64.5039 6.99744 65.111 7.39863 65.6167 7.90539C66.131 8.40371 66.5277 8.98225 66.8056 9.64101C67.0927 10.2998 67.2358 10.9881 67.2358 11.706H57.5852C57.5852 12.576 57.6947 13.3826 57.9138 14.1258C58.1416 14.8691 58.4578 15.511 58.8626 16.0515C59.2673 16.592 59.7477 17.0144 60.3046 17.3184C60.861 17.6225 61.4725 17.7745 62.1385 17.7745C62.6949 17.7745 63.2302 17.6858 63.7451 17.5084C64.2594 17.3226 64.723 17.0819 65.1364 16.7863C65.5579 16.4907 65.9162 16.1528 66.2114 15.7728C66.5066 15.3927 66.7133 15 66.831 14.5946L67.5774 14.924C67.3917 15.5912 67.0927 16.2162 66.6793 16.799C66.2659 17.3817 65.7813 17.8927 65.2249 18.3319C64.6766 18.7626 64.0781 19.1047 63.4288 19.3581C62.7796 19.6114 62.1217 19.7381 61.4552 19.7381ZM64.0106 10.6672C64.0106 10.1773 63.9221 9.72128 63.7451 9.29895C63.5762 8.87669 63.3403 8.5135 63.0365 8.20944C62.7332 7.89696 62.3786 7.65198 61.9739 7.47463C61.5691 7.29728 61.1352 7.20858 60.6711 7.20858C60.2836 7.20858 59.9123 7.29728 59.5582 7.47463C59.2042 7.64355 58.8879 7.88425 58.6095 8.19679C58.331 8.50085 58.0995 8.86398 57.9138 9.28631C57.7368 9.70858 57.631 10.1647 57.5976 10.6545L64.0106 10.6672Z" fill="#343A40"/>
</g>
<defs>
<clipPath id="clip0_66_646">
<rect width="68" height="20" fill="white"/>
</clipPath>
</defs>
</svg>
